<svg width="44" height="48" viewBox="0 0 44 48" fill="none" xmlns="http://www.w3.org/2000/svg">
<path d="M21.7171 47.9961C19.0739 47.9961 16.4221 47.5709 13.9122 46.7244C9.96672 45.4069 6.4167 43.0928 3.59301 40.0115L1.46557 41.204C1.16472 41.3749 0.790805 41.3749 0.489955 41.204C0.184808 41.033 0 40.7203 0 40.3784V27.1317C0 26.794 0.184808 26.4813 0.489955 26.3103C0.790805 26.1394 1.16472 26.1394 1.46557 26.3103L13.289 32.9316C13.5898 33.1025 13.7746 33.4152 13.7746 33.753C13.7746 34.0907 13.5898 34.4034 13.289 34.5744L11.2733 35.7043C12.7474 37.5431 14.6299 39.0525 16.7659 40.1074C19.6369 41.5459 23.2643 41.9086 27.5535 41.1914C28.0865 41.1039 28.5893 41.4458 28.6796 41.9628C28.7698 42.4798 28.4131 42.9677 27.8845 43.0552C23.1654 43.8474 19.1254 43.418 15.872 41.7919C13.1385 40.4409 10.7747 38.4145 9.03839 35.942C8.88366 35.7252 8.83209 35.4542 8.89226 35.1998C8.95243 34.9413 9.12004 34.7245 9.35643 34.5911L10.8478 33.7572L1.95123 28.7745V38.7398L3.31794 37.9726C3.73054 37.7432 4.25488 37.835 4.55572 38.1894C7.22899 41.3124 10.6845 43.6431 14.5482 44.9315C18.975 46.4284 23.8617 46.4909 28.3014 45.1108C32.5949 43.7891 36.377 41.1122 38.9514 37.5765C40.4127 35.5917 41.4657 33.3777 42.076 30.9969C42.2049 30.4882 42.7379 30.1797 43.2579 30.3089C43.7822 30.434 44.1003 30.951 43.9713 31.4556C43.3009 34.0699 42.1448 36.5007 40.5417 38.6772C37.7223 42.5424 33.5877 45.4694 28.8902 46.9204C26.5736 47.6417 24.141 48.0003 21.7085 48.0003L21.7171 47.9961Z" fill="white"/>
<path d="M43.0243 22.6866C42.8567 22.6866 42.689 22.6432 42.5386 22.5564L30.714 15.6681C30.4132 15.4902 30.2283 15.1649 30.2283 14.8135C30.2283 14.4622 30.4132 14.1368 30.714 13.959L32.7299 12.7834C31.2556 10.8705 29.373 9.30022 27.2367 8.19843C24.3655 6.7019 20.7377 6.32451 16.4481 7.07061C15.9151 7.16604 15.4122 6.80167 15.3219 6.26812C15.2317 5.73024 15.5884 5.22272 16.1171 5.13162C20.8366 4.30745 24.877 4.7499 28.1308 6.44597C30.8645 7.8514 33.2285 9.95956 34.965 12.5319C35.1155 12.7574 35.1713 13.0394 35.1112 13.304C35.051 13.5729 34.8834 13.8028 34.647 13.9373L33.1555 14.8048L42.0529 19.9885V9.62989L40.686 10.428C40.2734 10.6666 39.749 10.5712 39.4481 10.2068C36.7746 6.95783 33.3188 4.53301 29.4546 3.19264C25.0231 1.63538 20.1403 1.57032 15.7002 3.00612C11.4062 4.38553 7.62371 7.16604 5.04905 10.8445C3.58764 12.9092 2.53456 15.2126 1.9242 17.6938C1.79526 18.223 1.26657 18.5483 0.742179 18.4095C0.217789 18.2794 -0.100283 17.7415 0.0286653 17.2166C0.699196 14.4969 1.85543 11.9679 3.45869 9.70363C6.26546 5.67385 10.4047 2.62873 15.0984 1.12353C19.9383 -0.442406 25.2638 -0.368664 30.0865 1.3274C34.0323 2.69814 37.5827 5.1056 40.4066 8.31121L42.5343 7.07061C42.8352 6.89276 43.2091 6.89276 43.51 7.07061C43.8109 7.24846 44 7.57379 44 7.92515V21.7062C44 22.0576 43.8152 22.3829 43.51 22.5608C43.3596 22.6475 43.1919 22.6909 43.02 22.6909L43.0243 22.6866Z" fill="white"/>
<path d="M28.4704 27.6269C28.4704 24.1078 24.8817 23.2673 21.9983 22.5924C18.9607 21.8792 17.5278 21.3911 17.5278 19.9902C17.5278 19.1964 17.5278 17.3329 21.5663 17.3287C21.5663 17.3287 21.5751 17.3287 21.5795 17.3287C21.5839 17.3287 21.5883 17.3287 21.5927 17.3287C25.2608 17.3329 25.8075 19.2813 25.8075 20.4445C25.8075 21.0218 26.2969 21.493 26.8965 21.493C27.4961 21.493 27.9855 21.0218 27.9855 20.4445C27.9855 18.131 26.557 15.6774 22.6685 15.2911V13.2663C22.6685 12.689 22.1791 12.2178 21.5795 12.2178C20.9799 12.2178 20.4905 12.689 20.4905 13.2663V15.2826C16.0553 15.6604 15.3499 18.3432 15.3499 19.9945C15.3499 23.1952 18.749 23.9932 21.4825 24.6342C24.4761 25.3346 26.2925 25.8865 26.2925 27.6311C26.2925 28.7645 25.737 30.6663 22.016 30.6663C17.7967 30.6663 16.8444 27.8943 16.8444 26.9265C16.8444 26.3492 16.3551 25.878 15.7555 25.878C15.1559 25.878 14.6665 26.3492 14.6665 26.9265C14.6665 28.9556 16.2845 32.0416 20.4905 32.6486V34.7329C20.4905 35.3102 20.9799 35.7814 21.5795 35.7814C22.1791 35.7814 22.6685 35.3102 22.6685 34.7329V32.742C26.9273 32.5086 28.4704 29.9956 28.4704 27.6311V27.6269Z" fill="white"/>
</svg>
