<svg width="52" height="53" viewBox="0 0 52 53" fill="none" xmlns="http://www.w3.org/2000/svg">
<path fill-rule="evenodd" clip-rule="evenodd" d="M49.1399 19.8872C48.7011 19.8067 48.4073 19.367 48.4838 18.9052L49.9583 9.99853L5.42467 1.83097L4.29889 8.63446C4.22247 9.09633 3.80479 9.40553 3.36599 9.32509C2.92719 9.24465 2.63342 8.80502 2.70985 8.34316L3.97401 0.703323C4.01071 0.481516 4.12963 0.284141 4.3046 0.154625C4.47956 0.0251061 4.69625 -0.0259441 4.90697 0.0127046L51.0297 8.4717C51.2404 8.51035 51.4279 8.63552 51.551 8.81968C51.674 9.00384 51.7225 9.2319 51.6858 9.4537L50.0728 19.1966C49.9964 19.6585 49.5787 19.9676 49.1399 19.8872Z" fill="#FCFCFC"/>
<path fill-rule="evenodd" clip-rule="evenodd" d="M11.6096 6.92254C10.9526 8.63377 9.18379 9.69478 7.33866 9.36696C6.91766 9.29216 6.63593 8.88407 6.7094 8.45546C6.78287 8.02684 7.18371 7.74002 7.60471 7.81482C8.86865 8.03938 10.0734 7.17804 10.294 5.88936C10.3293 5.68352 10.4434 5.50036 10.6113 5.38018C10.7792 5.26001 10.9871 5.21266 11.1892 5.24855L18.0567 6.46767C18.4778 6.54241 18.7595 6.95046 18.6861 7.37908C18.6127 7.8077 18.2119 8.09458 17.7909 8.01984L11.6096 6.92254Z" fill="#FCFCFC"/>
<path fill-rule="evenodd" clip-rule="evenodd" d="M43.0725 14.6333C42.6314 14.7671 42.1853 14.4376 42.076 13.8975C42.0066 13.5542 41.964 13.1968 41.9543 12.8302L35.3794 11.4265C34.9317 11.3309 34.6321 10.809 34.7101 10.2609C34.7882 9.71274 35.2144 9.34586 35.6621 9.44144L42.9646 11.0005C43.1799 11.0465 43.3714 11.1953 43.4969 11.4143C43.6223 11.6333 43.6716 11.9044 43.6336 12.1679C43.573 12.5894 43.5916 13.0087 43.6734 13.4132C43.7827 13.9533 43.5136 14.4996 43.0725 14.6333Z" fill="#FCFCFC"/>
<path fill-rule="evenodd" clip-rule="evenodd" d="M33.1343 14.6106C32.6947 14.779 32.2125 14.5286 32.0574 14.0513C30.9805 10.7373 27.8341 8.65181 24.5406 9.27453C22.0556 9.74454 20.1265 11.6383 19.3376 14.0528C19.1817 14.5298 18.6992 14.7793 18.2599 14.6101C17.8205 14.4409 17.5907 13.9171 17.7466 13.4401C18.7302 10.4295 21.1397 8.05735 24.2509 7.46892L24.2509 7.46891C28.3727 6.68955 32.3038 9.30066 33.6494 13.4415C33.8045 13.9188 33.5739 14.4422 33.1343 14.6106Z" fill="#FCFCFC"/>
<path fill-rule="evenodd" clip-rule="evenodd" d="M51.1907 43.5637C51.2663 44.0185 50.9756 44.4514 50.5414 44.5306L4.8979 52.8568C4.46365 52.936 4.05031 52.6315 3.97467 52.1767L0.136799 29.0977C0.061167 28.6429 0.351883 28.2099 0.786135 28.1307L46.4296 19.8046C46.8638 19.7254 47.2772 20.0299 47.3528 20.4847L51.1907 43.5637ZM49.4812 43.027L45.9172 21.5951L1.8463 29.6343L5.41029 51.0663L49.4812 43.027Z" fill="#FCFCFC"/>
<path fill-rule="evenodd" clip-rule="evenodd" d="M35.043 42.2489C34.9714 41.794 35.2462 41.361 35.6569 41.2817L41.6857 40.1172C41.7272 38.4438 42.6766 36.9503 44.0829 36.3411L43.0198 29.5806C41.5092 29.5346 40.161 28.483 39.6111 26.9253L33.5822 28.0898C33.1716 28.1691 32.7807 27.8646 32.7091 27.4098C32.6375 26.9549 32.9123 26.5219 33.3229 26.4426L40.0209 25.1489C40.4315 25.0696 40.8224 25.374 40.894 25.8287C41.1093 27.195 42.283 28.1105 43.5171 27.8722C43.7143 27.8341 43.9171 27.8844 44.0809 28.0119C44.2446 28.1395 44.3559 28.3338 44.3902 28.5523L45.6864 36.7953C45.7579 37.2501 45.4832 37.683 45.0727 37.7623C43.8393 38.0007 43.0129 39.3009 43.228 40.668C43.2995 41.1228 43.0247 41.5558 42.6141 41.6351L35.9161 42.9288C35.5055 43.0082 35.1146 42.7037 35.043 42.2489Z" fill="#FCFCFC"/>
<path fill-rule="evenodd" clip-rule="evenodd" d="M11.3746 47.1188C10.964 47.1981 10.5731 46.8937 10.5015 46.4389C10.2862 45.0727 9.11251 44.1572 7.87838 44.3955C7.68118 44.4336 7.4784 44.3833 7.31466 44.2558C7.15092 44.1282 7.03963 43.9338 7.00528 43.7154L5.70907 35.4724C5.63756 35.0176 5.91232 34.5847 6.32284 34.5054C7.55622 34.2669 8.38266 32.9668 8.16753 31.5997C8.09596 31.1448 8.37079 30.7119 8.78139 30.6325L15.4794 29.3388C15.89 29.2595 16.2809 29.564 16.3525 30.0188C16.4241 30.4737 16.1493 30.9067 15.7386 30.986L9.70984 32.1504C9.66834 33.8238 8.71892 35.3174 7.31263 35.9266L8.37571 42.687C9.88627 42.7331 11.2345 43.7847 11.7844 45.3424L17.8133 44.1779C18.2239 44.0986 18.6148 44.403 18.6864 44.8579C18.758 45.3127 18.4832 45.7458 18.0726 45.8251L11.3746 47.1188Z" fill="#FCFCFC"/>
<path fill-rule="evenodd" clip-rule="evenodd" d="M19.3939 37.8085C20.0001 41.4538 23.3155 43.8951 26.7965 43.2601C30.277 42.6253 32.6078 39.1528 32.0016 35.507C31.3954 31.8617 28.08 29.4204 24.599 30.0554C21.1186 30.6902 18.7877 34.1627 19.3939 37.8085ZM27.071 44.911C22.72 45.7047 18.5755 42.6536 17.8176 38.096C17.0599 33.539 19.973 29.1982 24.3245 28.4045C28.6755 27.6108 32.82 30.6619 33.5779 35.2195C34.3356 39.7765 31.4225 44.1173 27.071 44.911Z" fill="#FCFCFC"/>
<path fill-rule="evenodd" clip-rule="evenodd" d="M48.8978 34.563C48.4559 34.563 48.0978 34.1879 48.0978 33.7251L48.0978 15.2916L3.29775 15.2916L3.29775 23.6705C3.29775 24.1332 2.93958 24.5083 2.49775 24.5083C2.05593 24.5083 1.69775 24.1332 1.69775 23.6705L1.69776 14.4537C1.69776 13.991 2.05593 13.6158 2.49775 13.6158L48.8978 13.6158C49.3396 13.6158 49.6978 13.991 49.6978 14.4537L49.6978 33.7251C49.6978 34.1879 49.3396 34.563 48.8978 34.563Z" fill="#FCFCFC"/>
<path fill-rule="evenodd" clip-rule="evenodd" d="M43.5441 21.6671C43.2854 22.0244 42.7904 22.1013 42.4383 21.8387C41.6665 21.2629 41.0982 20.4075 40.8966 19.4111L34.4887 19.4111C34.0519 19.4111 33.6978 19.0516 33.6978 18.6081C33.6978 18.1647 34.0519 17.8052 34.4887 17.8052L41.6075 17.8052C42.0444 17.8052 42.3985 18.1647 42.3985 18.6081C42.3985 19.4001 42.7815 20.1017 43.3751 20.5446C43.7271 20.8072 43.8028 21.3098 43.5441 21.6671Z" fill="#FCFCFC"/>
<path fill-rule="evenodd" clip-rule="evenodd" d="M6.49775 24.0894C6.05593 24.0894 5.69775 23.6874 5.69775 23.1916L5.69775 22.2939C5.69775 21.7981 6.05593 21.3961 6.49775 21.3961C7.82393 21.3961 8.89775 20.1911 8.89775 18.7029C8.89775 18.2071 9.25593 17.8052 9.69775 17.8052L16.8978 17.8052C17.3396 17.8052 17.6978 18.2071 17.6978 18.7029C17.6978 19.1987 17.3396 19.6007 16.8978 19.6007L10.4178 19.6007C10.0998 21.36 8.8655 22.7451 7.29775 23.1019L7.29775 23.1916C7.29775 23.6874 6.93958 24.0894 6.49775 24.0894Z" fill="#FCFCFC"/>
<path fill-rule="evenodd" clip-rule="evenodd" d="M18.5778 26.182C18.1286 26.2101 17.7417 25.8683 17.7137 25.4187C17.4579 21.322 20.3111 17.6005 24.4456 16.8797C28.5794 16.159 32.5243 18.6929 33.6654 22.6365C33.7906 23.0692 33.5417 23.5216 33.1094 23.647C32.6771 23.7723 32.2252 23.5231 32.1 23.0904C31.1876 19.9369 28.031 17.9107 24.7252 18.487C21.4201 19.0632 19.1356 22.0392 19.3402 25.3169C19.3683 25.7666 19.0269 26.1539 18.5778 26.182Z" fill="#FCFCFC"/>
</svg>
