<svg width="53" height="66" viewBox="0 0 53 66" fill="none" xmlns="http://www.w3.org/2000/svg">
<g clip-path="url(#clip0_431_199)">
<path d="M39.4385 53.1475H44.5036C46.1587 53.1475 46.805 53.7938 46.805 55.4489C46.805 56.0268 47.2726 56.4945 47.8506 56.4945C48.4286 56.4945 48.8962 56.0268 48.8962 55.4489C48.8962 52.6588 47.2989 51.0615 44.5089 51.0615H39.5698L39.4437 53.1475H39.4385Z" fill="white"/>
<path d="M2.08595 65.4108V58.7799C3.10003 59.3894 4.59225 59.8728 6.78854 59.8728H49.0961C49.9578 59.8728 50.6618 60.4876 50.6618 61.2495V65.4108H52.7478V61.2495C52.7478 59.4788 51.1085 58.0391 49.0961 58.0391H6.78854C3.03172 58.0391 2.21731 56.3157 2.09121 55.9689C2.10172 55.1124 2.30138 53.3943 6.78854 53.3943H14.8276L14.7015 51.5605H6.78854C1.17696 51.5605 0 54.0248 0 56.0897V65.4108H2.08595Z" fill="white"/>
<path d="M34.6678 58.2913C36.4806 56.3682 37.4736 53.8724 37.4736 51.2085C37.4736 45.5023 32.8341 40.8628 27.1279 40.8628C21.4218 40.8628 16.7822 45.5023 16.7822 51.2085C16.7822 53.8619 17.7753 56.3682 19.588 58.2913H16.9083C15.4687 56.2263 14.6963 53.7726 14.6963 51.2085C14.6963 44.3517 20.2711 38.7769 27.1279 38.7769C33.9848 38.7769 39.5596 44.3517 39.5596 51.2085C39.5596 53.7831 38.7872 56.2316 37.3475 58.2913H34.6626H34.6678Z" fill="white"/>
<path d="M31.2471 52.1015C31.2471 49.8264 29.0088 49.28 27.2119 48.8439C25.3203 48.3815 24.4271 48.0663 24.4271 47.1625C24.4271 46.6476 24.4271 45.4444 26.9439 45.4391C26.9439 45.4391 26.9439 45.4391 26.9491 45.4391C26.9544 45.4391 26.9491 45.4391 26.9544 45.4391C29.24 45.4391 29.5815 46.7054 29.5815 47.4568C29.5815 47.8298 29.8863 48.1346 30.2593 48.1346C30.6324 48.1346 30.9371 47.8298 30.9371 47.4568C30.9371 45.9593 30.0492 44.3725 27.6217 44.1203V42.8067C27.6217 42.4337 27.3169 42.1289 26.9439 42.1289C26.5708 42.1289 26.2661 42.4337 26.2661 42.8067V44.1098C23.5023 44.3515 23.061 46.0906 23.061 47.1573C23.061 49.2274 25.1784 49.7476 26.8808 50.1575C28.7461 50.6093 29.881 50.9666 29.881 52.0963C29.881 52.8319 29.5343 54.0614 27.2171 54.0614C24.5847 54.0614 23.9962 52.2697 23.9962 51.6392C23.9962 51.2661 23.6915 50.9614 23.3184 50.9614C22.9454 50.9614 22.6406 51.2661 22.6406 51.6392C22.6406 52.9527 23.6494 54.9494 26.2713 55.3434V56.6938C26.2713 57.0668 26.5761 57.3716 26.9491 57.3716C27.3222 57.3716 27.6269 57.0668 27.6269 56.6938V55.4065C30.2804 55.2541 31.2419 53.6305 31.2419 52.1015H31.2471Z" fill="white"/>
<path d="M16.5878 30.4698L21.0959 27.8321C21.6161 27.5274 21.3954 26.6499 20.807 26.6867L7.47683 27.4958C7.24564 27.5116 7.04598 27.685 6.97767 27.9319L5.78495 32.3455C5.64309 32.871 6.15275 33.3176 6.5836 33.0496L10.5401 30.5748C10.8816 30.3594 11.3125 30.6011 11.3598 31.032L11.3913 31.321C11.4175 31.5732 11.5752 31.7518 11.7696 31.8254C11.4859 31.8779 11.2494 32.1196 11.1811 32.4401L9.60482 39.9432C9.49973 40.4529 9.84651 40.9363 10.3194 40.9363H12.7364C13.0779 40.9363 13.3721 40.6788 13.451 40.311L15.0272 32.8079C15.1323 32.2982 14.7855 31.8149 14.3127 31.8149H12.1374C12.1374 31.8149 12.1847 31.7991 12.2109 31.7833L15.1008 29.9916C15.3688 29.8235 15.705 29.9338 15.8522 30.2333C15.994 30.5276 16.3251 30.6379 16.593 30.4803L16.5878 30.4698Z" fill="white"/>
<path d="M13.2619 44.6459C19.7592 44.6459 25.0263 39.3788 25.0263 32.8815C25.0263 26.3843 19.7592 21.1172 13.2619 21.1172C6.76464 21.1172 1.49756 26.3843 1.49756 32.8815C1.49756 39.3788 6.76464 44.6459 13.2619 44.6459Z" stroke="white" stroke-width="1.8" stroke-miterlimit="10"/>
<path d="M41.4298 19.2361C41.4298 20.0085 41.4298 20.0033 42.1707 20.2765C43.3161 20.6968 44.078 21.485 44.43 22.6514C44.6244 23.303 44.3932 23.634 43.7259 23.6392C43.4737 23.6392 43.2215 23.6392 42.9641 23.6392C42.6015 23.6392 42.3546 23.4711 42.2495 23.1348C41.8764 21.9263 40.8413 21.795 39.9586 21.7845C39.6486 21.7845 39.3281 21.858 39.0339 21.9526C38.3666 22.1733 38.0355 22.6619 38.025 23.3397C38.0198 24.0701 38.2352 24.4694 38.9813 24.6796C39.9008 24.9423 40.8571 25.0736 41.7924 25.2891C42.7749 25.515 43.7417 25.8145 44.3512 26.6867C45.4283 28.2105 45.1814 30.8271 42.9798 32.0093C42.5963 32.2142 42.1654 32.3456 41.7451 32.4717C41.5086 32.54 41.4088 32.6293 41.4141 32.892C41.4298 33.3019 41.4246 33.717 41.3878 34.1215C41.351 34.5419 41.1093 34.7731 40.6574 34.7573C40.421 34.7468 40.1845 34.7573 39.9429 34.7573C39.3859 34.752 39.16 34.5524 39.1232 34.0059C39.1022 33.6592 39.0917 33.3071 39.1232 32.9603C39.1547 32.6241 39.0076 32.5295 38.7081 32.4769C36.9427 32.1512 35.834 31.0688 35.4557 29.3349C35.3506 28.862 35.5608 28.5572 36.0389 28.531C36.3857 28.51 36.7377 28.51 37.0845 28.531C37.4261 28.552 37.6467 28.7096 37.7676 29.0722C38.3245 30.7535 40.4998 31.3998 41.9447 30.3227C42.5227 29.8918 42.7119 29.2823 42.591 28.5993C42.4754 27.9425 41.9815 27.6062 41.3878 27.4643C40.5786 27.2699 39.7537 27.1438 38.9393 26.9704C38.5557 26.8864 38.1774 26.7708 37.8096 26.6342C36.433 26.1298 35.7342 25.1052 35.7026 23.676C35.6711 22.2626 36.3384 21.1907 37.5889 20.5234C37.962 20.3238 38.3718 20.1819 38.7817 20.0873C39.0496 20.0243 39.1179 19.9087 39.1179 19.6775C39.1179 19.3307 39.1074 18.9787 39.1284 18.6319C39.1705 18.0539 39.3596 17.8858 39.9323 17.8753C39.9796 17.8753 40.0269 17.8753 40.0742 17.8753C41.2249 17.8385 41.4561 17.8385 41.4246 19.2361H41.4298Z" fill="white"/>
<path d="M53.0002 26.2765C53.079 31.6832 49.4115 36.638 44.3306 38.2878C43.6738 38.498 43.3848 38.3088 43.3796 37.6415C43.3586 36.0232 43.3638 36.3542 44.6406 35.75C47.7354 34.2788 49.7163 31.8776 50.4729 28.5464C51.592 23.6021 48.9596 18.6368 44.2676 16.6979C43.4426 16.3564 43.0538 15.4001 43.4269 14.5594C43.5898 14.1916 43.926 14.1654 44.2308 14.2967C45.1135 14.675 46.033 15.0008 46.8474 15.4947C50.1524 17.5018 52.1227 20.4548 52.8268 24.2484C52.9476 24.9104 52.9476 25.5987 53.0054 26.2712L53.0002 26.2765Z" fill="white"/>
<path d="M37.1739 15.327C37.1739 16.278 37.1004 16.3411 36.2282 16.7194C32.9127 18.1695 30.8268 20.6653 30.0491 24.191C29.0666 28.6571 31.2051 33.2073 35.2456 35.4141C35.6712 35.6453 36.1231 35.845 36.5697 36.0341C36.9638 36.2023 37.1792 36.465 37.1739 36.9011C37.1739 37.1533 37.1739 37.4055 37.1739 37.663C37.1634 38.2724 36.8639 38.5036 36.2912 38.3145C34.137 37.6157 32.3032 36.4177 30.79 34.7363C28.9825 32.7239 27.8896 30.3595 27.6321 27.6798C27.2433 23.6445 28.4938 20.1504 31.389 17.2763C32.6763 15.9995 34.1895 15.0748 35.8814 14.439C36.9375 14.0449 37.1739 14.1973 37.1739 15.327Z" fill="white"/>
<path d="M13.4615 16.8505C12.8783 16.8505 12.4106 16.3776 12.4106 15.7996V9.57332C12.4106 8.99009 12.8835 8.52246 13.4615 8.52246C14.0395 8.52246 14.5124 8.99535 14.5124 9.57332V15.7996C14.5124 16.3829 14.0395 16.8505 13.4615 16.8505Z" fill="white"/>
<path d="M22.2096 20.6391C21.7788 20.6391 21.4268 20.2608 21.4268 19.7984V13.5248C21.4268 13.0624 21.7788 12.6841 22.2096 12.6841C22.6405 12.6841 22.9925 13.0624 22.9925 13.5248V19.7984C22.9925 20.2608 22.6405 20.6391 22.2096 20.6391Z" fill="white" stroke="white" stroke-width="0.05" stroke-miterlimit="10"/>
<path d="M5.09685 20.639C4.666 20.639 4.31396 20.2817 4.31396 19.8351V13.8347C4.31396 13.3933 4.666 13.0308 5.09685 13.0308C5.52771 13.0308 5.87974 13.3881 5.87974 13.8347V19.8351C5.87974 20.2764 5.52771 20.639 5.09685 20.639Z" fill="white" stroke="white" stroke-width="0.05" stroke-miterlimit="10"/>
<path d="M40.2164 8.32805C39.6332 8.32805 39.1655 7.85516 39.1655 7.27719V1.05086C39.1655 0.467632 39.6384 0 40.2164 0C40.7944 0 41.2672 0.472886 41.2672 1.05086V7.27719C41.2672 7.86041 40.7944 8.32805 40.2164 8.32805Z" fill="white"/>
<path d="M48.9645 12.1166C48.5337 12.1166 48.1816 11.7383 48.1816 11.2759V5.00231C48.1816 4.53993 48.5337 4.16162 48.9645 4.16162C49.3954 4.16162 49.7474 4.53993 49.7474 5.00231V11.2759C49.7474 11.7383 49.3954 12.1166 48.9645 12.1166Z" fill="white" stroke="white" stroke-width="0.05" stroke-miterlimit="10"/>
<path d="M31.8517 12.1165C31.4209 12.1165 31.0688 11.7592 31.0688 11.3126V5.31221C31.0688 4.87085 31.4209 4.5083 31.8517 4.5083C32.2826 4.5083 32.6346 4.86559 32.6346 5.31221V11.3126C32.6346 11.754 32.2826 12.1165 31.8517 12.1165Z" fill="white" stroke="white" stroke-width="0.05" stroke-miterlimit="10"/>
</g>
<defs>
<clipPath id="clip0_431_199">
<rect width="53" height="65.4106" fill="white"/>
</clipPath>
</defs>
</svg>
