<?xml version="1.0" encoding="UTF-8"?><svg id="Layer_1" xmlns="http://www.w3.org/2000/svg" viewBox="0 0 491.53 242.04"><defs><style>.cls-1{fill:#fff;}.cls-2{fill:#fff;}</style></defs><g><path class="cls-1" d="M142.35,45l59.27-31.36c6.86-3.63,3.97-14.05-3.78-13.63L22.53,9.65c-3.05,.17-5.67,2.23-6.54,5.16L.32,67.32c-1.86,6.25,4.83,11.58,10.51,8.37l52.01-29.45c4.5-2.55,10.14,.31,10.76,5.44l.41,3.42c.36,2.98,2.42,5.14,4.95,5.98-3.76,.65-6.85,3.49-7.73,7.31l-20.72,89.23c-1.4,6.04,3.18,11.81,9.38,11.81h31.8c4.48,0,8.37-3.09,9.38-7.45l20.72-89.23c1.4-6.04-3.18-11.81-9.38-11.81h-28.61c.32-.12,.64-.21,.95-.38l37.98-21.33c3.52-1.98,7.97-.7,9.9,2.84h0c1.9,3.48,6.24,4.78,9.74,2.93Z"/><path class="cls-1" d="M237.86,39.12h-18.8c-2.34,0-4.36,1.64-4.84,3.93l-9.99,47.32c-.48,2.29-2.5,3.93-4.84,3.93h-16.14c-3.15,0-5.49-2.9-4.84-5.97l9.13-43.23c.65-3.08-1.7-5.97-4.84-5.97-.8,0-1.6,.2-2.31,.57l-21.15,11.14c-1.3,.69-2.23,1.92-2.54,3.36l-23.1,109.4c-.65,3.08,1.7,5.97,4.84,5.97h18.8c2.34,0,4.36-1.64,4.84-3.93l9.69-45.88c.48-2.29,2.5-3.93,4.84-3.93h16.14c3.15,0,5.49,2.9,4.84,5.97l-8.82,41.79c-.65,3.08,1.7,5.97,4.84,5.97h18.8c2.34,0,4.36-1.64,4.84-3.93l25.45-120.54c.65-3.08-1.7-5.97-4.84-5.97Z"/><path class="cls-1" d="M314.38,39.12h-29.25c-1.97,0-3.75,1.16-4.54,2.97l-52.75,120.54c-1.43,3.27,.97,6.93,4.54,6.93h18.01c2.02,0,3.84-1.23,4.59-3.1l6.99-17.38c.75-1.87,2.57-3.1,4.59-3.1h21.35c2.77,0,5,2.28,4.95,5.05l-.27,13.49c-.05,2.77,2.18,5.05,4.95,5.05h19.43c2.78,0,5.01-2.28,4.95-5.06l-2.6-120.54c-.06-2.69-2.26-4.84-4.95-4.84Zm-21.13,80.67c-.05,2.7-2.25,4.86-4.95,4.86h-9.12c-3.51,0-5.91-3.55-4.59-6.81l9.54-23.6c2.06-5.09,9.64-3.54,9.54,1.94l-.42,23.6Z"/><path class="cls-1" d="M486.57,39.12h-17.84c-2.08,0-3.94,1.3-4.65,3.26l-24.66,68.01c-1.88,5.2-9.58,3.86-9.6-1.67l-.29-64.68c-.01-2.73-2.22-4.93-4.95-4.93h-21.3c-2.11,0-3.98,1.33-4.67,3.32l-23.74,67.98c-1.82,5.22-9.52,3.98-9.62-1.54l-1.18-64.9c-.05-2.7-2.25-4.86-4.95-4.86h-18.55c-2.77,0-5.01,2.28-4.95,5.05l2.54,120.54c.06,2.69,2.26,4.85,4.95,4.85h31.06c2.12,0,4-1.34,4.68-3.34l18.44-53.75c1.82-5.29,9.64-3.98,9.63,1.61l-.09,50.52c0,2.74,2.21,4.96,4.95,4.96h24.3c5.93,0,11.22-3.7,13.26-9.27l41.89-114.52c1.18-3.23-1.21-6.65-4.65-6.65Z"/></g><g><path class="cls-2" d="M149.65,195.19c-2.91-1.29-6.4-1.94-10.47-1.94h-17.4v48.51h3.53v-15.87h13.86c4.07,0,7.55-.65,10.47-1.94,2.91-1.29,5.15-3.16,6.72-5.61,1.57-2.45,2.36-5.36,2.36-8.73s-.79-6.41-2.36-8.84c-1.57-2.43-3.81-4.29-6.72-5.58Zm1.42,24.08c-2.7,2.29-6.67,3.43-11.89,3.43h-13.86v-26.27h13.86c5.22,0,9.18,1.14,11.89,3.43,2.7,2.29,4.05,5.53,4.05,9.74s-1.35,7.38-4.05,9.67Z"/><path class="cls-2" d="M171.76,213.49v-7.91h-3.33v36.18h3.47v-18.85c0-4.48,1.13-7.98,3.4-10.5,2.26-2.52,5.41-3.78,9.43-3.78,.14,0,.28,.01,.42,.04s.28,.03,.42,.03v-3.4c-3.6,0-6.61,.79-9.01,2.36-2.15,1.41-3.74,3.35-4.78,5.83Z"/><path class="cls-2" d="M218.2,207.66c-2.73-1.57-5.82-2.36-9.29-2.36s-6.55,.79-9.25,2.36c-2.7,1.57-4.85,3.73-6.45,6.48-1.59,2.75-2.39,5.93-2.39,9.53s.8,6.72,2.39,9.5c1.59,2.77,3.74,4.94,6.45,6.51,2.7,1.57,5.79,2.36,9.25,2.36s6.56-.79,9.29-2.36c2.73-1.57,4.87-3.74,6.45-6.51,1.57-2.77,2.36-5.94,2.36-9.5s-.79-6.78-2.36-9.53c-1.57-2.75-3.72-4.91-6.45-6.48Zm3.4,23.98c-1.25,2.31-2.98,4.1-5.2,5.37s-4.71,1.91-7.49,1.91-5.26-.63-7.45-1.91c-2.19-1.27-3.93-3.06-5.2-5.37-1.27-2.31-1.91-4.97-1.91-7.97s.63-5.72,1.91-8c1.27-2.29,3-4.06,5.2-5.34,2.19-1.27,4.68-1.91,7.45-1.91s5.27,.64,7.49,1.91c2.22,1.27,3.95,3.05,5.2,5.34s1.87,4.96,1.87,8-.62,5.66-1.87,7.97Z"/><path class="cls-2" d="M248.62,239.06c-2.17,0-3.84-.62-4.99-1.87-1.16-1.25-1.73-3.03-1.73-5.34v-23.29h11.5v-2.98h-11.5v-7.9h-3.47v7.9h-6.65v2.98h6.65v23.63c0,3.05,.84,5.45,2.53,7.21,1.69,1.76,4.12,2.63,7.31,2.63,1.39,0,2.74-.21,4.05-.62s2.44-1.06,3.36-1.94l-1.46-2.43c-1.48,1.34-3.35,2.01-5.61,2.01Z"/><path class="cls-2" d="M287.43,207.66c-2.73-1.57-5.82-2.36-9.29-2.36s-6.55,.79-9.25,2.36c-2.7,1.57-4.85,3.73-6.45,6.48-1.59,2.75-2.39,5.93-2.39,9.53s.8,6.72,2.39,9.5,3.74,4.94,6.45,6.51c2.7,1.57,5.79,2.36,9.25,2.36s6.56-.79,9.29-2.36c2.73-1.57,4.87-3.74,6.45-6.51,1.57-2.77,2.36-5.94,2.36-9.5s-.79-6.78-2.36-9.53c-1.57-2.75-3.72-4.91-6.45-6.48Zm3.4,23.98c-1.25,2.31-2.98,4.1-5.2,5.37s-4.71,1.91-7.49,1.91-5.26-.63-7.45-1.91c-2.2-1.27-3.93-3.06-5.2-5.37s-1.91-4.97-1.91-7.97,.63-5.72,1.91-8,3-4.06,5.2-5.34c2.19-1.27,4.68-1.91,7.45-1.91s5.27,.64,7.49,1.91c2.22,1.27,3.95,3.05,5.2,5.34,1.25,2.29,1.87,4.96,1.87,8s-.62,5.66-1.87,7.97Z"/><path class="cls-2" d="M313.73,210.33c2.24-1.27,4.77-1.91,7.59-1.91,2.26,0,4.37,.44,6.31,1.32s3.56,2.24,4.85,4.09l2.56-1.87c-1.48-2.22-3.41-3.88-5.79-4.99-2.38-1.11-5.02-1.66-7.94-1.66-3.51,0-6.64,.77-9.39,2.32-2.75,1.55-4.92,3.71-6.51,6.48-1.59,2.77-2.39,5.96-2.39,9.56s.8,6.72,2.39,9.5,3.76,4.94,6.51,6.51c2.75,1.57,5.88,2.36,9.39,2.36,2.91,0,5.56-.55,7.94-1.66,2.38-1.11,4.31-2.77,5.79-4.99l-2.56-1.87c-1.29,1.85-2.91,3.21-4.85,4.09-1.94,.88-4.04,1.32-6.31,1.32-2.82,0-5.35-.63-7.59-1.91-2.24-1.27-4-3.05-5.27-5.34s-1.91-4.96-1.91-8,.63-5.72,1.91-8,3.03-4.06,5.27-5.34Z"/><path class="cls-2" d="M368.24,207.66c-2.73-1.57-5.82-2.36-9.29-2.36s-6.55,.79-9.25,2.36c-2.7,1.57-4.85,3.73-6.45,6.48-1.59,2.75-2.39,5.93-2.39,9.53s.8,6.72,2.39,9.5,3.74,4.94,6.45,6.51c2.7,1.57,5.79,2.36,9.25,2.36s6.56-.79,9.29-2.36c2.73-1.57,4.87-3.74,6.45-6.51,1.57-2.77,2.36-5.94,2.36-9.5s-.79-6.78-2.36-9.53c-1.57-2.75-3.72-4.91-6.45-6.48Zm3.4,23.98c-1.25,2.31-2.98,4.1-5.2,5.37s-4.71,1.91-7.49,1.91-5.26-.63-7.45-1.91c-2.2-1.27-3.93-3.06-5.2-5.37s-1.91-4.97-1.91-7.97,.63-5.72,1.91-8,3-4.06,5.2-5.34c2.19-1.27,4.68-1.91,7.45-1.91s5.27,.64,7.49,1.91c2.22,1.27,3.95,3.05,5.2,5.34,1.25,2.29,1.87,4.96,1.87,8s-.62,5.66-1.87,7.97Z"/><rect class="cls-2" x="387.79" y="190.33" width="3.46" height="51.42"/></g></svg>